<svg xmlns="http://www.w3.org/2000/svg" width="800" height="240" viewBox="0 0 800 240" shape-rendering="crispEdges">
  <defs>
    <!-- 紧凑像素马里奥 (20x24)，供动画复用 -->
    <g id="mario">
      <rect x="6" y="0" width="8" height="1" fill="#E52521"/>
      <rect x="4" y="1" width="11" height="4" fill="#E52521"/>
      <rect x="3" y="5" width="14" height="2" fill="#E52521"/>
      <rect x="9" y="2" width="3" height="2" fill="#fff"/>
      <rect x="4" y="7" width="11" height="7" fill="#FCB878"/>
      <rect x="3" y="7" width="2" height="6" fill="#6A3800"/>
      <rect x="15" y="8" width="2" height="5" fill="#6A3800"/>
      <rect x="7" y="8" width="2" height="3" fill="#3A2000"/>
      <rect x="11" y="8" width="2" height="3" fill="#3A2000"/>
      <rect x="9" y="10" width="3" height="3" fill="#F09848"/>
      <rect x="5" y="13" width="11" height="2" fill="#6A3800"/>
      <rect x="2" y="15" width="16" height="4" fill="#E52521"/>
      <rect x="6" y="15" width="8" height="7" fill="#3B5DC9"/>
      <rect x="6" y="17" width="2" height="2" fill="#FBD000"/>
      <rect x="12" y="17" width="2" height="2" fill="#FBD000"/>
      <rect x="0" y="16" width="3" height="3" fill="#fff"/>
      <rect x="17" y="16" width="3" height="3" fill="#fff"/>
      <rect x="4" y="22" width="5" height="2" fill="#6A3800"/>
      <rect x="11" y="22" width="5" height="2" fill="#6A3800"/>
    </g>
  </defs>

  <!-- 天空 -->
  <rect x="0" y="0" width="800" height="240" fill="#5C94FC"/>
  <!-- 云 -->
  <g fill="#ffffff">
    <ellipse cx="120" cy="45" rx="26" ry="14"/><ellipse cx="150" cy="45" rx="20" ry="12"/>
    <ellipse cx="560" cy="55" rx="26" ry="14"/><ellipse cx="590" cy="55" rx="20" ry="12"/>
  </g>
  <!-- 灌木 -->
  <g fill="#00A800">
    <ellipse cx="470" cy="200" rx="34" ry="18"/><ellipse cx="500" cy="200" rx="26" ry="14"/>
  </g>

  <!-- 地面 -->
  <rect x="0" y="200" width="800" height="40" fill="#C84C0C"/>
  <rect x="0" y="200" width="800" height="6" fill="#00A800"/>

  <!-- 水管 -->
  <g>
    <rect x="233" y="166" width="56" height="12" fill="#00C000"/>
    <rect x="233" y="166" width="56" height="12" fill="none" stroke="#004E00" stroke-width="2"/>
    <rect x="241" y="178" width="40" height="24" fill="#00A800"/>
    <rect x="241" y="178" width="40" height="24" fill="none" stroke="#004E00" stroke-width="2"/>
    <rect x="247" y="170" width="6" height="28" fill="#00E000" opacity="0.6"/>
  </g>

  <!-- 敌人 goomba -->
  <g id="goomba">
    <rect x="366" y="184" width="26" height="16" fill="#8B4513"/>
    <rect x="371" y="180" width="16" height="6" fill="#8B4513"/>
    <rect x="372" y="188" width="6" height="7" fill="#fff"/>
    <rect x="380" y="188" width="6" height="7" fill="#fff"/>
    <rect x="374" y="190" width="2" height="4" fill="#000"/>
    <rect x="382" y="190" width="2" height="4" fill="#000"/>
    <rect x="366" y="200" width="8" height="2" fill="#3A2000"/>
    <rect x="384" y="200" width="8" height="2" fill="#3A2000"/>
    <animate attributeName="opacity" values="1;1;1;0;0;0;0;0;1" keyTimes="0;0.34;0.37;0.40;0.6;0.8;0.9;0.99;1" dur="10s" repeatCount="indefinite"/>
  </g>
  <rect x="364" y="196" width="30" height="4" fill="#8B4513" opacity="0">
    <animate attributeName="opacity" values="0;0;0;1;1;0;0" keyTimes="0;0.37;0.39;0.40;0.52;0.57;1" dur="10s" repeatCount="indefinite"/>
  </rect>

  <!-- 旗杆 -->
  <rect x="678" y="46" width="4" height="154" fill="#C0C0C0"/>
  <rect x="678" y="46" width="2" height="154" fill="#E8E8E8"/>
  <circle cx="680" cy="43" r="6" fill="#FBD000"/>
  <rect x="672" y="198" width="16" height="4" fill="#3A2000"/>

  <!-- 旗子：竖边贴杆(右)，尖端朝左；随马里奥下降 -->
  <g>
    <polygon points="678,58 678,76 648,67" fill="#00A800"/>
    <polygon points="678,58 678,76 648,67" fill="none" stroke="#004E00" stroke-width="1"/>
    <animateTransform attributeName="transform" type="translate"
      values="0,0; 0,0; 0,0; 0,0; 0,0; 0,122; 0,122; 0,122"
      keyTimes="0;0.55;0.60;0.63;0.66;0.83;0.9;1"
      calcMode="spline"
      keySplines="0 0 1 1;0 0 1 1;0 0 1 1;0 0 1 1;.4 0 .6 1;0 0 1 1;0 0 1 1"
      dur="10s" repeatCount="indefinite"/>
  </g>

  <!-- 城堡 -->
  <g>
    <rect x="720" y="150" width="72" height="50" fill="#C84C0C"/>
    <rect x="738" y="170" width="18" height="30" fill="#1a1a1a"/>
    <rect x="720" y="140" width="12" height="12" fill="#C84C0C"/>
    <rect x="742" y="140" width="12" height="12" fill="#C84C0C"/>
    <rect x="764" y="140" width="12" height="12" fill="#C84C0C"/>
    <rect x="740" y="118" width="30" height="24" fill="#C84C0C"/>
    <rect x="748" y="124" width="14" height="14" fill="#1a1a1a"/>
    <rect x="720" y="150" width="72" height="50" fill="none" stroke="#7A2E06" stroke-width="1"/>
  </g>

  <!-- 马里奥：平滑抛物线跑跳过关 -->
  <g>
    <use href="#mario"/>
    <animateTransform attributeName="transform" type="translate"
      values="30,176;
              150,176; 185,140; 215,124; 245,140; 275,176;
              320,176; 350,176;
              365,160; 378,150; 388,158; 398,176;
              430,176; 560,176; 630,176;
              660,120; 668,70; 668,54;
              668,90; 668,140; 668,176;
              700,176; 745,176; 758,176"
      keyTimes="0;
                0.14;0.17;0.20;0.23;0.26;
                0.31;0.34;
                0.36;0.38;0.40;0.42;
                0.46;0.53;0.57;
                0.60;0.62;0.64;
                0.70;0.78;0.84;
                0.90;0.96;1"
      calcMode="spline"
      keySplines="0 0 1 1;
                  .3 0 .5 1;.4 0 .7 1;.3 .3 .6 1;.4 0 .7 1;.4 0 .7 1;
                  0 0 1 1;0 0 1 1;
                  .3 0 .6 1;.4 0 .7 1;.3 .3 .6 1;.4 0 .7 1;
                  0 0 1 1;0 0 1 1;0 0 1 1;
                  .4 0 .8 1;.4 0 .8 1;.3 0 .7 1;
                  .3 .2 .7 1;.3 .2 .7 1;.4 0 .9 1;
                  0 0 1 1;0 0 1 1;0 0 1 1"
      dur="10s" repeatCount="indefinite"/>
  </g>

  <text x="400" y="26" fill="#ffffff" font-size="15" font-family="monospace" text-anchor="middle" letter-spacing="2">WORLD 1-1 · COURSE CLEAR!</text>
</svg>
