<svg xmlns="http://www.w3.org/2000/svg" width="120" height="144" viewBox="0 0 40 48" shape-rendering="crispEdges">
  <!-- 帽顶 -->
  <rect x="12" y="0" width="16" height="2" fill="#E52521"/>
  <rect x="8" y="2" width="22" height="8" fill="#E52521"/>
  <!-- 帽檐 -->
  <rect x="6" y="10" width="28" height="4" fill="#E52521"/>
  <rect x="2" y="12" width="6" height="3" fill="#E52521"/>
  <!-- 帽徽 M -->
  <rect x="17" y="4" width="6" height="4" fill="#ffffff"/>
  <rect x="19" y="4" width="2" height="4" fill="#E52521"/>
  <!-- 脸 -->
  <rect x="8" y="14" width="22" height="14" fill="#FCB878"/>
  <!-- 鬓角 / 后脑头发 -->
  <rect x="6" y="14" width="4" height="12" fill="#6A3800"/>
  <rect x="28" y="16" width="4" height="10" fill="#6A3800"/>
  <!-- 眼睛 -->
  <rect x="14" y="16" width="3" height="6" fill="#3A2000"/>
  <rect x="22" y="16" width="3" height="6" fill="#3A2000"/>
  <!-- 鼻子 -->
  <rect x="17" y="20" width="6" height="6" fill="#F09848"/>
  <!-- 胡子 -->
  <rect x="10" y="26" width="22" height="4" fill="#6A3800"/>
  <rect x="8" y="24" width="4" height="4" fill="#6A3800"/>
  <rect x="28" y="24" width="4" height="4" fill="#6A3800"/>
  <!-- 上衣 / 肩袖 -->
  <rect x="4" y="30" width="32" height="8" fill="#E52521"/>
  <!-- 背带裤主体 -->
  <rect x="12" y="30" width="16" height="14" fill="#3B5DC9"/>
  <!-- 背带 -->
  <rect x="10" y="30" width="4" height="8" fill="#3B5DC9"/>
  <rect x="26" y="30" width="4" height="8" fill="#3B5DC9"/>
  <!-- 黄扣 -->
  <rect x="12" y="33" width="3" height="3" fill="#FBD000"/>
  <rect x="25" y="33" width="3" height="3" fill="#FBD000"/>
  <!-- 白手套 -->
  <rect x="2" y="33" width="6" height="6" fill="#ffffff"/>
  <rect x="32" y="33" width="6" height="6" fill="#ffffff"/>
  <!-- 棕靴 -->
  <rect x="8" y="44" width="10" height="4" fill="#6A3800"/>
  <rect x="22" y="44" width="10" height="4" fill="#6A3800"/>
</svg>
