<svg xmlns="http://www.w3.org/2000/svg" width="800" height="240" viewBox="0 0 800 240" font-family="monospace">
  <!-- ===== WORLD 1-1 · 过关动画 ===== -->
  <defs>
    <!-- 像素马里奥：3px 一格 -->
    <g id="mario">
      <!-- 帽子 -->
      <rect x="3" y="0" width="9" height="3" fill="#E52521"/>
      <rect x="0" y="3" width="15" height="3" fill="#E52521"/>
      <!-- 脸 -->
      <rect x="3" y="6" width="9" height="3" fill="#FBB040"/>
      <rect x="12" y="6" width="3" height="3" fill="#7C3F00"/>
      <!-- 胡子 -->
      <rect x="3" y="9" width="9" height="3" fill="#7C3F00"/>
      <rect x="0" y="9" width="3" height="3" fill="#FBB040"/>
      <!-- 上衣 + 手臂 -->
      <rect x="0" y="12" width="15" height="3" fill="#E52521"/>
      <!-- 背带裤 -->
      <rect x="0" y="15" width="15" height="3" fill="#4A6FE0"/>
      <rect x="0" y="18" width="15" height="3" fill="#4A6FE0"/>
      <rect x="3" y="21" width="3" height="3" fill="#4A6FE0"/>
      <rect x="9" y="21" width="3" height="3" fill="#4A6FE0"/>
      <!-- 鞋 -->
      <rect x="0" y="24" width="6" height="3" fill="#7C3F00"/>
      <rect x="9" y="24" width="6" height="3" fill="#7C3F00"/>
    </g>
  </defs>

  <!-- 天空 -->
  <rect x="0" y="0" width="800" height="240" fill="#5C94FC"/>
  <!-- 云 -->
  <g fill="#ffffff" opacity="0.95">
    <ellipse cx="120" cy="45" rx="26" ry="14"/><ellipse cx="150" cy="45" rx="20" ry="12"/>
    <ellipse cx="560" cy="60" rx="26" ry="14"/><ellipse cx="590" cy="60" rx="20" ry="12"/>
  </g>

  <!-- 地面 -->
  <rect x="0" y="200" width="800" height="40" fill="#C84C0C"/>
  <rect x="0" y="200" width="800" height="6" fill="#00A800"/>

  <!-- 水管 -->
  <g>
    <rect x="235" y="168" width="54" height="10" fill="#00A800"/>
    <rect x="235" y="168" width="54" height="10" fill="none" stroke="#004E00" stroke-width="2"/>
    <rect x="243" y="178" width="38" height="24" fill="#00A800"/>
    <rect x="243" y="178" width="38" height="24" fill="none" stroke="#004E00" stroke-width="2"/>
  </g>

  <!-- 敌人 goomba：踩前圆的，踩后压扁 -->
  <g id="goomba">
    <rect x="368" y="182" width="24" height="18" fill="#8B4513"/>
    <rect x="372" y="178" width="16" height="6" fill="#8B4513"/>
    <rect x="373" y="188" width="5" height="6" fill="#fff"/>
    <rect x="382" y="188" width="5" height="6" fill="#fff"/>
    <rect x="375" y="190" width="2" height="3" fill="#000"/>
    <rect x="384" y="190" width="2" height="3" fill="#000"/>
    <animate attributeName="opacity" values="1;1;1;0;0;0;0;0;1" keyTimes="0;0.36;0.39;0.42;0.6;0.8;0.9;0.99;1" dur="9s" repeatCount="indefinite"/>
  </g>
  <!-- 压扁的 goomba -->
  <rect id="goomba-flat" x="366" y="195" width="28" height="5" fill="#8B4513" opacity="0">
    <animate attributeName="opacity" values="0;0;0;1;1;0;0" keyTimes="0;0.39;0.41;0.42;0.55;0.6;1" dur="9s" repeatCount="indefinite"/>
  </rect>

  <!-- 旗杆 -->
  <rect x="678" y="46" width="4" height="154" fill="#B0BEC5"/>
  <circle cx="680" cy="44" r="6" fill="#00A800"/>
  <!-- 旗子：下降 -->
  <g>
    <polygon points="646,58 678,66 646,74" fill="#E52521"/>
    <animateTransform attributeName="transform" type="translate"
      values="0,0; 0,0; 0,0; 0,0; 0,120; 0,120; 0,120"
      keyTimes="0;0.55;0.62;0.66;0.82;0.9;1" dur="9s" repeatCount="indefinite"/>
  </g>

  <!-- 城堡 -->
  <g>
    <rect x="720" y="150" width="70" height="50" fill="#C84C0C"/>
    <rect x="738" y="168" width="18" height="32" fill="#1a1a1a"/>
    <rect x="720" y="140" width="12" height="12" fill="#C84C0C"/>
    <rect x="742" y="140" width="12" height="12" fill="#C84C0C"/>
    <rect x="764" y="140" width="12" height="12" fill="#C84C0C"/>
    <rect x="740" y="120" width="30" height="22" fill="#C84C0C"/>
    <rect x="748" y="126" width="14" height="14" fill="#1a1a1a"/>
  </g>

  <!-- 马里奥：跑→跳水管→踩敌→冲刺→上旗杆→滑下→进城堡 -->
  <g>
    <use href="#mario"/>
    <animateTransform attributeName="transform" type="translate"
      values="40,173; 205,173; 250,128; 300,173; 355,173; 375,150; 386,170; 400,173; 650,173; 668,52; 668,52; 668,168; 700,173; 760,173; 760,173"
      keyTimes="0;0.15;0.19;0.24;0.34;0.37;0.40;0.43;0.55;0.62;0.66;0.82;0.90;0.97;1"
      dur="9s" repeatCount="indefinite"/>
  </g>

  <!-- 状态字幕 -->
  <text x="400" y="26" fill="#ffffff" font-size="16" text-anchor="middle" letter-spacing="2">
    WORLD 1-1  ·  COURSE CLEAR!
  </text>
</svg>
